<svg xmlns="http://www.w3.org/2000/svg" viewBox="0 0 50 50">
    <path style="text-indent:0;text-align:start;line-height:normal;text-transform:none;block-progression:tb;-inkscape-font-specification:Sans" d="M 6 5 C 3.8026661 5 2 6.8026661 2 9 L 2 31 C 2 32.953943 3.4204158 34.566496 5.28125 34.90625 L 6.59375 42.3125 C 6.9783079 44.476633 9.0556425 45.947111 11.21875 45.5625 L 44.6875 39.59375 C 46.851633 39.209192 48.322111 37.131857 47.9375 34.96875 L 44.09375 13.3125 A 1.0001 1.0001 0 0 0 44 13.03125 L 44 9 C 44 6.8026661 42.197334 5 40 5 L 6 5 z M 6 7 L 40 7 C 41.116666 7 42 7.8833339 42 9 L 42 12 L 4 12 L 4 9 C 4 7.8833339 4.8833339 7 6 7 z M 4 17 L 42 17 L 42 31 C 42 32.116666 41.116666 33 40 33 L 6 33 C 4.8833339 33 4 32.116666 4 31 L 4 17 z M 9 20 L 9 22 L 25 22 L 25 20 L 9 20 z M 44 24.21875 L 45.96875 35.3125 C 46.164139 36.411393 45.443617 37.429558 44.34375 37.625 L 10.875 43.59375 C 9.7761075 43.789139 8.7579421 43.068617 8.5625 41.96875 L 7.3125 35 L 40 35 C 42.197334 35 44 33.197334 44 31 L 44 24.21875 z" color="#000" overflow="visible" font-family="Sans"></path>
</svg>