<?xml version="1.0" encoding="utf-8"?>
<!-- Generator: Adobe Illustrator 19.0.0, SVG Export Plug-In . SVG Version: 6.00 Build 0)  -->
<svg version="1.1" id="Layer_1" xmlns="http://www.w3.org/2000/svg" xmlns:xlink="http://www.w3.org/1999/xlink" x="0px" y="0px"
	 viewBox="0 0 1372.3 999.9" style="enable-background:new 0 0 1372.3 999.9;" xml:space="preserve">
<style type="text/css">
	.st0{fill:#104F72;}
	.st1{fill:#1C75BC;}
	.st2{fill:#24AEEF;}
	.st3{fill:#FFFFFF;}
	.st4{fill:#E5E5E5;}
</style>
<g id="XMLID_137_">
	<path id="XMLID_153_" class="st0" d="M1244.7,629H713.1c-6.6,0-12-5.4-12-12V409.5c0-6.6,5.4-12,12-12h531.6c6.6,0,12,5.4,12,12
		V617C1256.7,623.6,1251.3,629,1244.7,629z"/>
	<path id="XMLID_152_" class="st1" d="M1162,891.4H107.9c-6.6,0-12-5.4-12-12V146.1c0-6.6,5.4-12,12-12H1162c6.6,0,12,5.4,12,12
		v733.3C1174,886,1168.6,891.4,1162,891.4z"/>
	<path id="XMLID_151_" class="st2" d="M1184.1,867.1H130c-6.6,0-12-5.4-12-12V121.8c0-6.6,5.4-12,12-12h1054.1c6.6,0,12,5.4,12,12
		v733.3C1196.1,861.7,1190.7,867.1,1184.1,867.1z"/>
	<path id="XMLID_150_" class="st1" d="M1266.7,607H735.2c-6.6,0-12-5.4-12-12V387.5c0-6.6,5.4-12,12-12h531.6c6.6,0,12,5.4,12,12
		V595C1278.7,601.6,1273.3,607,1266.7,607z"/>
	<circle id="XMLID_149_" class="st3" cx="831.5" cy="491.2" r="68.2"/>
	<g id="XMLID_138_">
		<path id="Round_x5F_all_5_" class="st3" d="M657,491.2c0,126.3-102.4,228.6-228.6,228.6c-126.3,0-228.6-102.4-228.6-228.6
			c0-126.3,102.4-228.6,228.6-228.6C554.7,262.6,657,365,657,491.2z M428.4,268.9c-122.8,0-222.4,99.6-222.4,222.4
			s99.6,222.4,222.4,222.4c122.8,0,222.4-99.6,222.4-222.4S551.2,268.9,428.4,268.9z"/>
		<g id="Round_x5F_3x_5_">
			<circle id="XMLID_143_" class="st3" cx="382.6" cy="599.7" r="14.5"/>
			<circle id="XMLID_142_" class="st3" cx="430.8" cy="599.7" r="14.5"/>
			<circle id="XMLID_141_" class="st3" cx="479.1" cy="599.7" r="14.5"/>
		</g>
		<g id="Arrow_5_">
			<polygon id="XMLID_140_" class="st3" points="430.8,356.9 529.7,555.4 461.9,555.4 430.8,493 			"/>
			<polygon id="XMLID_139_" class="st4" points="430.8,356.9 332.8,555.4 400,555.4 430.8,493 			"/>
		</g>
	</g>
</g>
</svg>
