<svg xmlns="http://www.w3.org/2000/svg" viewBox="0 0 50 50" enable-background="new 0 0 50 50">
    <path style="text-indent:0;text-align:start;line-height:normal;text-transform:none;block-progression:tb;-inkscape-font-specification:Bitstream Vera Sans" d="M 25 4.5 C 23.078848 4.5 21.5 6.0788481 21.5 8 C 21.5 9.9211519 23.078848 11.5 25 11.5 C 26.921152 11.5 28.5 9.9211519 28.5 8 C 28.5 6.0788481 26.921152 4.5 25 4.5 z M 25 6.5 C 25.840272 6.5 26.5 7.1597281 26.5 8 C 26.5 8.8402719 25.840272 9.5 25 9.5 C 24.159728 9.5 23.5 8.8402719 23.5 8 C 23.5 7.1597281 24.159728 6.5 25 6.5 z M 37 9 C 34.802706 9 33 10.802706 33 13 C 33 15.197294 34.802706 17 37 17 C 39.197294 17 41 15.197294 41 13 C 41 10.802706 39.197294 9 37 9 z M 13 10 C 11.35499 10 10 11.35499 10 13 C 10 14.64501 11.35499 16 13 16 C 14.64501 16 16 14.64501 16 13 C 16 11.35499 14.64501 10 13 10 z M 37 11 C 38.116414 11 39 11.883586 39 13 C 39 14.116414 38.116414 15 37 15 C 35.883586 15 35 14.116414 35 13 C 35 11.883586 35.883586 11 37 11 z M 13 12 C 13.564128 12 14 12.435872 14 13 C 14 13.564128 13.564128 14 13 14 C 12.435872 14 12 13.564128 12 13 C 12 12.435872 12.435872 12 13 12 z M 42 20.5 C 39.526563 20.5 37.5 22.526563 37.5 25 C 37.5 27.473437 39.526563 29.5 42 29.5 C 44.473437 29.5 46.5 27.473437 46.5 25 C 46.5 22.526563 44.473437 20.5 42 20.5 z M 8 22.5 C 6.6311327 22.5 5.5 23.631133 5.5 25 C 5.5 26.368867 6.6311327 27.5 8 27.5 C 9.3688673 27.5 10.5 26.368867 10.5 25 C 10.5 23.631133 9.3688673 22.5 8 22.5 z M 42 22.5 C 43.392557 22.5 44.5 23.607443 44.5 25 C 44.5 26.392557 43.392557 27.5 42 27.5 C 40.607443 27.5 39.5 26.392557 39.5 25 C 39.5 23.607443 40.607443 22.5 42 22.5 z M 8 24.5 C 8.2879869 24.5 8.5 24.712013 8.5 25 C 8.5 25.287987 8.2879869 25.5 8 25.5 C 7.7120131 25.5 7.5 25.287987 7.5 25 C 7.5 24.712013 7.7120131 24.5 8 24.5 z M 37 32 C 34.250421 32 32 34.250421 32 37 C 32 39.749579 34.250421 42 37 42 C 39.749579 42 42 39.749579 42 37 C 42 34.250421 39.749579 32 37 32 z M 37 34 C 38.668699 34 40 35.331301 40 37 C 40 38.668699 38.668699 40 37 40 C 35.331301 40 34 38.668699 34 37 C 34 35.331301 35.331301 34 37 34 z M 13 35 C 11.907275 35 11 35.907275 11 37 C 11 38.092725 11.907275 39 13 39 C 14.092725 39 15 38.092725 15 37 C 15 35.907275 14.092725 35 13 35 z M 25 36.5 C 21.974279 36.5 19.5 38.974279 19.5 42 C 19.5 45.025721 21.974279 47.5 25 47.5 C 28.025721 47.5 30.5 45.025721 30.5 42 C 30.5 38.974279 28.025721 36.5 25 36.5 z M 25 38.5 C 26.944841 38.5 28.5 40.055159 28.5 42 C 28.5 43.944841 26.944841 45.5 25 45.5 C 23.055159 45.5 21.5 43.944841 21.5 42 C 21.5 40.055159 23.055159 38.5 25 38.5 z"></path>
</svg>