<?xml version="1.0" encoding="utf-8"?>
<!-- Generator: Adobe Illustrator 19.0.0, SVG Export Plug-In . SVG Version: 6.00 Build 0)  -->
<svg version="1.1" id="Layer_1" xmlns="http://www.w3.org/2000/svg" xmlns:xlink="http://www.w3.org/1999/xlink" x="0px" y="0px"
	 viewBox="0 0 6835.3 1039.9" style="enable-background:new 0 0 6835.3 1039.9;" xml:space="preserve">
<style type="text/css">
	.st0{fill:#020202;}
	.st1{fill:#104F72;}
	.st2{fill:#1C75BC;}
	.st3{fill:#24AEEF;}
	.st4{fill:#FFFFFF;}
	.st5{fill:#E5E5E5;}
</style>
<g id="XMLID_115_">
	<path id="XMLID_135_" class="st0" d="M1704.5,205.6h199.3l-250.2,305.6l249.3,327.1H1700l-161.8-226.1l-5.4,7.2v219H1372V205.6
		h160.9v234.1L1704.5,205.6z"/>
	<path id="XMLID_132_" class="st0" d="M2481.1,838.3h-171.6l-41.1-126.9h-168.9l-39.3,126.9h-171.6l220.7-632.7H2255L2481.1,838.3z
		 M2229.9,569.3l-43.8-185h-4.5l-46.5,185H2229.9z"/>
	<path id="XMLID_130_" class="st0" d="M2523,205.6h160l133.2,309.2l134.1-309.2h160v632.7h-160.9l0.9-182.3l9.8-127.8l-5.4-0.9
		l-83.1,217.2h-109.9l-84.9-217.2l-4.5,0.9L2683,656v182.3h-160V205.6z"/>
	<path id="XMLID_127_" class="st0" d="M3210.2,205.6h252.9c154.6,0,231.5,111.7,231.5,223.4c0,112.6-77.7,224.3-230.6,224.3h-93.8
		v185h-160V205.6z M3463.1,511.2c96.5,0.9,96.5-157.3,0-156.4h-92.9v156.4H3463.1z"/>
	<path id="XMLID_125_" class="st0" d="M3762.4,205.6h160l133.2,309.2l134.1-309.2h160v632.7h-160.9l0.9-182.3l9.8-127.8l-5.4-0.9
		L4111,744.5h-109.9l-84.9-217.2l-4.5,0.9l10.7,127.8v182.3h-160V205.6z"/>
	<path id="XMLID_122_" class="st0" d="M4434.4,413.8c0-145.7,130.5-217.2,261.9-217.2c131.4,0,262.8,72.4,262.8,217.2v216.3
		c0,144.8-130.5,217.2-261.9,217.2s-262.7-72.4-262.7-217.2V413.8z M4594.4,630.1c0,46.5,51.8,68.8,102.8,68.8
		s101.9-23.2,101.9-68.8V413.8c0-49.1-52.7-71.5-104.6-71.5c-50,0-100.1,25-100.1,71.5V630.1z"/>
	<path id="XMLID_120_" class="st0" d="M5043.9,205.6h151.9l152.8,269.9l53.6,126.9l4.5-0.9c-0.9,0-17-109-17.9-109V205.6h159.1
		v632.7h-161.8l-143-249.3l-55.4-126.9l-4.5,0.9l20.6,122.4v252.9h-160V205.6z"/>
	<path id="XMLID_118_" class="st0" d="M5809.7,454h256.5v138.5h-256.5v94.7h278.8v151H5648V205.6h440.6v150.1h-278.8V454z"/>
	<path id="XMLID_116_" class="st0" d="M6336.1,838.3V589l-220.7-383.4h185.9L6415.6,438L6530,205.6h187.7L6496,589v249.3H6336.1z"/>
</g>
<g id="XMLID_101_">
	<path id="XMLID_114_" class="st1" d="M1269.2,648.7H737.6c-6.6,0-12-5.4-12-12V429.2c0-6.6,5.4-12,12-12h531.6c6.6,0,12,5.4,12,12
		v207.5C1281.2,643.3,1275.8,648.7,1269.2,648.7z"/>
	<path id="XMLID_113_" class="st2" d="M1186.5,911.1H132.4c-6.6,0-12-5.4-12-12V165.8c0-6.6,5.4-12,12-12h1054.1c6.6,0,12,5.4,12,12
		v733.3C1198.5,905.7,1193.1,911.1,1186.5,911.1z"/>
	<path id="XMLID_112_" class="st3" d="M1208.6,886.8H154.5c-6.6,0-12-5.4-12-12V141.5c0-6.6,5.4-12,12-12h1054.1c6.6,0,12,5.4,12,12
		v733.3C1220.6,881.4,1215.2,886.8,1208.6,886.8z"/>
	<path id="XMLID_111_" class="st2" d="M1291.3,626.7H759.7c-6.6,0-12-5.4-12-12V407.2c0-6.6,5.4-12,12-12h531.6c6.6,0,12,5.4,12,12
		v207.5C1303.3,621.3,1297.9,626.7,1291.3,626.7z"/>
	<circle id="XMLID_110_" class="st4" cx="856" cy="510.9" r="68.2"/>
	<g id="XMLID_102_">
		<path id="Round_x5F_all_4_" class="st4" d="M681.5,510.9c0,126.3-102.4,228.6-228.6,228.6c-126.3,0-228.6-102.4-228.6-228.6
			c0-126.3,102.4-228.6,228.6-228.6C579.2,282.3,681.5,384.7,681.5,510.9z M452.9,288.6c-122.8,0-222.4,99.6-222.4,222.4
			s99.6,222.4,222.4,222.4c122.8,0,222.4-99.6,222.4-222.4S575.7,288.6,452.9,288.6z"/>
		<g id="Round_x5F_3x_4_">
			<circle id="XMLID_107_" class="st4" cx="407.1" cy="619.4" r="14.5"/>
			<circle id="XMLID_106_" class="st4" cx="455.4" cy="619.4" r="14.5"/>
			<circle id="XMLID_105_" class="st4" cx="503.6" cy="619.4" r="14.5"/>
		</g>
		<g id="Arrow_4_">
			<polygon id="XMLID_104_" class="st4" points="455.3,376.6 554.2,575.1 486.5,575.1 455.3,512.7 			"/>
			<polygon id="XMLID_103_" class="st5" points="455.3,376.6 357.3,575.1 424.5,575.1 455.3,512.7 			"/>
		</g>
	</g>
</g>
</svg>
