<?xml version="1.0" encoding="utf-8"?>
<!-- Generator: Adobe Illustrator 19.2.1, SVG Export Plug-In . SVG Version: 6.00 Build 0)  -->
<svg version="1.1" id="Layer_1" xmlns="http://www.w3.org/2000/svg" xmlns:xlink="http://www.w3.org/1999/xlink" x="0px" y="0px"
	 viewBox="0 0 800 500" style="enable-background:new 0 0 800 500;" xml:space="preserve">
<style type="text/css">
	.st0{fill:#020202;}
	.st1{fill:#104F72;}
	.st2{fill:#1C75BC;}
	.st3{fill:#24AEEF;}
	.st4{fill:#FFFFFF;}
	.st5{fill:#E5E5E5;}
</style>
<g id="XMLID_115_">
	<path id="XMLID_135_" class="st0" d="M94.2,379.2h26.1l-32.8,40l32.7,42.8H93.6l-21.2-29.6l-0.7,0.9v28.7H50.7v-82.9h21.1v30.7
		L94.2,379.2z"/>
	<path id="XMLID_132_" class="st0" d="M195.9,462.1h-22.5l-5.4-16.6H146l-5.1,16.6h-22.5l28.9-82.9h19.1L195.9,462.1z M163,426.9
		l-5.7-24.2h-0.6l-6.1,24.2H163z"/>
	<path id="XMLID_130_" class="st0" d="M201.4,379.2h21l17.4,40.5l17.6-40.5h21v82.9h-21.1l0.1-23.9l1.3-16.7l-0.7-0.1l-10.9,28.4
		h-14.4l-11.1-28.4l-0.6,0.1l1.4,16.7v23.9h-21V379.2z"/>
	<path id="XMLID_127_" class="st0" d="M291.4,379.2h33.1c20.2,0,30.3,14.6,30.3,29.3c0,14.7-10.2,29.4-30.2,29.4h-12.3v24.2h-21
		L291.4,379.2L291.4,379.2z M324.5,419.2c12.6,0.1,12.6-20.6,0-20.5h-12.2v20.5H324.5z"/>
	<path id="XMLID_125_" class="st0" d="M363.7,379.2h21l17.4,40.5l17.6-40.5h21v82.9h-21.1l0.1-23.9l1.3-16.7l-0.7-0.1l-10.9,28.4
		H395l-11.1-28.4l-0.6,0.1l1.4,16.7v23.9h-21L363.7,379.2L363.7,379.2z"/>
	<path id="XMLID_122_" class="st0" d="M451.8,406.5c0-19.1,17.1-28.4,34.3-28.4c17.2,0,34.4,9.5,34.4,28.4v28.3
		c0,19-17.1,28.4-34.3,28.4c-17.2,0-34.4-9.5-34.4-28.4L451.8,406.5L451.8,406.5z M472.7,434.8c0,6.1,6.8,9,13.5,9
		c6.7,0,13.3-3,13.3-9v-28.3c0-6.4-6.9-9.4-13.7-9.4c-6.5,0-13.1,3.3-13.1,9.4L472.7,434.8L472.7,434.8z"/>
	<path id="XMLID_120_" class="st0" d="M531.6,379.2h19.9l20,35.3l7,16.6l0.6-0.1c-0.1,0-2.2-14.3-2.3-14.3v-37.6h20.8v82.9h-21.2
		l-18.7-32.7l-7.3-16.6l-0.6,0.1l2.7,16v33.1h-21L531.6,379.2L531.6,379.2z"/>
	<path id="XMLID_118_" class="st0" d="M631.9,411.8h33.6v18.1h-33.6v12.4h36.5v19.8h-57.7v-82.9h57.7v19.7h-36.5L631.9,411.8
		L631.9,411.8z"/>
	<path id="XMLID_116_" class="st0" d="M700.8,462.1v-32.7l-28.9-50.2h24.3l15,30.4l15-30.4h24.6l-29,50.2v32.7H700.8z"/>
</g>
<g id="XMLID_101_">
	<path id="XMLID_114_" class="st1" d="M605.7,229.6H410.2c-2.4,0-4.4-2-4.4-4.4v-76.3c0-2.4,2-4.4,4.4-4.4h195.5
		c2.4,0,4.4,2,4.4,4.4v76.3C610.1,227.6,608.1,229.6,605.7,229.6z"/>
	<path id="XMLID_113_" class="st2" d="M575.3,326H187.7c-2.4,0-4.4-2-4.4-4.4V52c0-2.4,2-4.4,4.4-4.4h387.6c2.4,0,4.4,2,4.4,4.4
		v269.6C579.7,324.1,577.7,326,575.3,326z"/>
	<path id="XMLID_112_" class="st3" d="M583.4,317.1H195.8c-2.4,0-4.4-2-4.4-4.4V43.1c0-2.4,2-4.4,4.4-4.4h387.6c2.4,0,4.4,2,4.4,4.4
		v269.6C587.8,315.1,585.8,317.1,583.4,317.1z"/>
	<path id="XMLID_111_" class="st2" d="M613.8,221.5H418.3c-2.4,0-4.4-2-4.4-4.4v-76.3c0-2.4,2-4.4,4.4-4.4h195.5
		c2.4,0,4.4,2,4.4,4.4v76.3C618.2,219.5,616.2,221.5,613.8,221.5z"/>
	<circle id="XMLID_110_" class="st4" cx="453.7" cy="178.9" r="25.1"/>
	<g id="XMLID_102_">
		<path id="Round_x5F_all_4_" class="st4" d="M389.6,178.9c0,46.4-37.7,84.1-84.1,84.1c-46.4,0-84.1-37.7-84.1-84.1
			c0-46.4,37.7-84.1,84.1-84.1C352,94.8,389.6,132.5,389.6,178.9z M305.5,97.2c-45.2,0-81.8,36.6-81.8,81.8s36.6,81.8,81.8,81.8
			s81.8-36.6,81.8-81.8S350.7,97.2,305.5,97.2z"/>
		<g id="Round_x5F_3x_4_">
			<circle id="XMLID_107_" class="st4" cx="288.7" cy="218.8" r="5.3"/>
			<circle id="XMLID_106_" class="st4" cx="306.4" cy="218.8" r="5.3"/>
			<circle id="XMLID_105_" class="st4" cx="324.2" cy="218.8" r="5.3"/>
		</g>
		<g id="Arrow_4_">
			<polygon id="XMLID_104_" class="st4" points="306.4,129.5 342.8,202.5 317.9,202.5 306.4,179.6 			"/>
			<polygon id="XMLID_103_" class="st5" points="306.4,129.5 270.4,202.5 295.1,202.5 306.4,179.6 			"/>
		</g>
	</g>
</g>
</svg>
