<?xml version="1.0" encoding="utf-8"?>
<!-- Generator: Adobe Illustrator 19.0.0, SVG Export Plug-In . SVG Version: 6.00 Build 0)  -->
<svg version="1.1" id="Layer_1" xmlns="http://www.w3.org/2000/svg" xmlns:xlink="http://www.w3.org/1999/xlink" x="0px" y="0px"
	 viewBox="0 0 5614.7 1039.9" style="enable-background:new 0 0 5614.7 1039.9;" xml:space="preserve">
<style type="text/css">
	.st0{fill:#020202;}
</style>
<g id="XMLID_115_">
	<path id="XMLID_135_" class="st0" d="M483.9,205.6h199.3L433,511.2l249.3,327.1H479.5L317.7,612.2l-5.4,7.2v219H151.5V205.6h160.9
		v234.1L483.9,205.6z"/>
	<path id="XMLID_132_" class="st0" d="M1260.5,838.3h-171.6l-41.1-126.9H878.9l-39.3,126.9H668l220.7-632.7h145.7L1260.5,838.3z
		 M1009.4,569.3l-43.8-185h-4.5l-46.5,185H1009.4z"/>
	<path id="XMLID_130_" class="st0" d="M1302.4,205.6h160l133.2,309.2l134.1-309.2h160v632.7h-160.9l0.9-182.3l9.8-127.8l-5.4-0.9
		L1651,744.5h-109.9l-84.9-217.2l-4.5,0.9l10.7,127.8v182.3h-160V205.6z"/>
	<path id="XMLID_127_" class="st0" d="M1989.6,205.6h252.9c154.6,0,231.5,111.7,231.5,223.4c0,112.6-77.7,224.3-230.6,224.3h-93.8
		v185h-160V205.6z M2242.5,511.2c96.5,0.9,96.5-157.3,0-156.4h-92.9v156.4H2242.5z"/>
	<path id="XMLID_125_" class="st0" d="M2541.9,205.6h160L2835,514.8l134.1-309.2h160v632.7h-160.9l0.9-182.3l9.8-127.8l-5.4-0.9
		l-83.1,217.2h-109.9l-84.9-217.2l-4.5,0.9l10.7,127.8v182.3h-160V205.6z"/>
	<path id="XMLID_122_" class="st0" d="M3213.9,413.8c0-145.7,130.5-217.2,261.9-217.2c131.4,0,262.8,72.4,262.8,217.2v216.3
		c0,144.8-130.5,217.2-261.9,217.2c-131.4,0-262.7-72.4-262.7-217.2V413.8z M3373.8,630.1c0,46.5,51.8,68.8,102.8,68.8
		c50.9,0,101.9-23.2,101.9-68.8V413.8c0-49.1-52.7-71.5-104.6-71.5c-50,0-100.1,25-100.1,71.5V630.1z"/>
	<path id="XMLID_120_" class="st0" d="M3823.3,205.6h151.9l152.8,269.9l53.6,126.9l4.5-0.9c-0.9,0-17-109-17.9-109V205.6h159.1
		v632.7h-161.8l-143-249.3l-55.4-126.9l-4.5,0.9l20.6,122.4v252.9h-160V205.6z"/>
	<path id="XMLID_118_" class="st0" d="M4589.1,454h256.5v138.5h-256.5v94.7H4868v151h-440.6V205.6H4868v150.1h-278.8V454z"/>
	<path id="XMLID_116_" class="st0" d="M5115.5,838.3V589l-220.7-383.4h185.9L5195,438l114.4-232.4h187.7L5275.5,589v249.3H5115.5z"
		/>
</g>
</svg>
