<svg xmlns="http://www.w3.org/2000/svg" viewBox="0 0 50 50" enable-background="new 0 0 50 50">
    <path style="text-indent:0;text-align:start;line-height:normal;text-transform:none;block-progression:tb;-inkscape-font-specification:Bitstream Vera Sans" d="M 0 0 L 0 1 L 0 15 L 0 16 L 1 16 L 15 16 L 16 16 L 16 15 L 16 1 L 16 0 L 15 0 L 1 0 L 0 0 z M 34 0 L 34 1 L 34 15 L 34 16 L 35 16 L 49 16 L 50 16 L 50 15 L 50 1 L 50 0 L 49 0 L 35 0 L 34 0 z M 2 2 L 14 2 L 14 14 L 2 14 L 2 2 z M 36 2 L 48 2 L 48 14 L 36 14 L 36 2 z M 20 3 L 20 9 L 24 9 L 24 13 L 20 13 L 20 19 L 9 19 L 9 23 L 5 23 L 5 29 L 11 29 L 11 25 L 16 25 L 16 29 L 22 29 L 22 21 L 24 21 L 24 25 L 31 25 L 31 29 L 35 29 L 35 31 L 32 31 L 32 35 L 30 35 L 30 31 L 24 31 L 24 37 L 28 37 L 28 39 L 24 39 L 24 45 L 30 45 L 30 41 L 34 41 L 34 37 L 36 37 L 36 44 L 32 44 L 32 50 L 38 50 L 38 46 L 40 46 L 40 50 L 46 50 L 46 44 L 42 44 L 42 35 L 38 35 L 38 33 L 50 33 L 50 23 L 46 23 L 46 19 L 40 19 L 40 25 L 44 25 L 44 27 L 37 27 L 37 19 L 26 19 L 26 15 L 30 15 L 30 7 L 26 7 L 26 3 L 20 3 z M 4 4 L 4 12 L 12 12 L 12 4 L 4 4 z M 38 4 L 38 12 L 46 12 L 46 4 L 38 4 z M 0 34 L 0 35 L 0 49 L 0 50 L 1 50 L 15 50 L 16 50 L 16 49 L 16 35 L 16 34 L 15 34 L 1 34 L 0 34 z M 2 36 L 14 36 L 14 48 L 2 48 L 2 36 z M 4 38 L 4 46 L 12 46 L 12 38 L 4 38 z" color="#000" overflow="visible" enable-background="accumulate" font-family="Bitstream Vera Sans"></path>
</svg>